# xmcd CD database file
#
# Track frame offsets:
#	150
#	27840
#	48155
#	72412
#	97186
#	120946
#	141565
#	174345
#	201331
#	217289
#	236498
#	271666
#	295379
#	313973
#
# Disc length: 4453 seconds
#
# Revision: 0
# Processed by: cddbd v1.5.2PL0 Copyright (c) Steve Scherf et al.
# Submitted via: CDex 1.70beta2
#
DISCID=dc11630e
DTITLE=寺島靖国プレゼンツ - JAZZ BAR BEST and 5 -10th Anniversary-
DYEAR=2010
DGENRE=Jazz
TTITLE0=A BOY FULL OF TOUGHTS
TTITLE1=SPANISH HARLEM
TTITLE2=WINDMILLS OF YOUR MIND
TTITLE3=LET'S LIGHT THE STOVE
TTITLE4=DREAMER
TTITLE5=CANCO NO.6
TTITLE6=I'll Remember 21st May
TTITLE7=Anastasia
TTITLE8=PAINT IT BLACK
TTITLE9=REMEMBER WHEN
TTITLE10=BLUE TUESDAY
TTITLE11=WHEN A GYPSY MAKES HIS VIOLIN CRY
TTITLE12=BESAME MUCHO
TTITLE13=GOIN' HOME 
EXTD=YEAR: 2010
EXTT0=
EXTT1=
EXTT2=
EXTT3=
EXTT4=
EXTT5=
EXTT6=
EXTT7=
EXTT8=
EXTT9=
EXTT10=
EXTT11=
EXTT12=
EXTT13=
PLAYORDER=
